{
  "source": "C:\\Users\\Peter\\Desktop\\stuff\\MIUN\\quantitative_research\\video_compression\\videos\\BVI-HD\\BVI-HD_CDVL_videos\\ORIG\\RockWater_1920x1080_30fps.mp4",
  "output": "C:\\Users\\Peter\\Desktop\\stuff\\MIUN\\quantitative_research\\video_compression\\compressed_videos\\BVI-HD\\vp9\\8\\RockWater_1920x1080_30fps_vp9.webm",
  "codec": "vp9",
  "ok": "Input #0, mov,mp4,m4a,3gp,3g2,mj2, from 'C:\\Users\\Peter\\Desktop\\stuff\\MIUN\\quantitative_research\\video_compression\\videos\\BVI-HD\\BVI-HD_CDVL_videos\\ORIG\\RockWater_1920x1080_30fps.mp4':\n  Metadata:\n    major_brand     : isom\n    minor_version   : 512\n    compatible_brands: isomiso2avc1mp41\n    encoder         : Lavf54.28.101\n  Duration: 00:00:05.00, start: 0.000000, bitrate: 245943 kb/s\n  Stream #0:0[0x1](und): Video: h264 (High 4:4:4 Predictive) (avc1 / 0x31637661), yuv420p(progressive), 1920x1080, 245940 kb/s, 30 fps, 30 tbr, 30 tbn (default)\n    Metadata:\n      handler_name    : VideoHandler\n      vendor_id       : [0][0][0][0]\n[out#0/webm @ 000001f6d9d11280] Codec AVOption b:a (set bitrate (in bits/s)) has not been used for any stream. The most likely reason is either wrong type (e.g. a video option with no video streams) or that it is a private option of some decoder which was not actually used for any stream.\nStream mapping:\n  Stream #0:0 -> #0:0 (h264 (native) -> vp9 (libvpx-vp9))\nPress [q] to stop, [?] for help\n[libvpx-vp9 @ 000001f6da6c4040] v1.15.2-100-g40561f514\nOutput #0, webm, to 'C:\\Users\\Peter\\Desktop\\stuff\\MIUN\\quantitative_research\\video_compression\\compressed_videos\\BVI-HD\\vp9\\8\\RockWater_1920x1080_30fps_vp9.webm':\n  Metadata:\n    major_brand     : isom\n    minor_version   : 512\n    compatible_brands: isomiso2avc1mp41\n    encoder         : Lavf62.3.100\n  Stream #0:0(und): Video: vp9, yuv420p(tv, progressive), 1920x1080, q=2-31, 8000 kb/s, 30 fps, 1k tbn (default)\n    Metadata:\n      encoder         : Lavc62.11.100 libvpx-vp9\n      handler_name    : VideoHandler\n      vendor_id       : [0][0][0][0]\n    Side data:\n      cpb: bitrate max/min/avg: 0/0/0 buffer size: 8000000 vbv_delay: N/A\nframe=    0 fps=0.0 q=0.0 size=       0KiB time=N/A bitrate=N/A speed=N/A elapsed=0:00:00.55    \nframe=    4 fps=3.1 q=48.0 size=       1KiB time=00:00:00.13 bitrate=  38.0kbits/s speed=0.104x elapsed=0:00:01.28    \nframe=    7 fps=3.8 q=47.0 size=       1KiB time=00:00:00.23 bitrate=  21.7kbits/s speed=0.127x elapsed=0:00:01.83    \nframe=   10 fps=4.2 q=44.0 size=       1KiB time=00:00:00.33 bitrate=  15.2kbits/s speed=0.141x elapsed=0:00:02.36    \nframe=   13 fps=4.5 q=44.0 size=       1KiB time=00:00:00.43 bitrate=  11.7kbits/s speed=0.15x elapsed=0:00:02.88    \nframe=   16 fps=4.7 q=45.0 size=       1KiB time=00:00:00.53 bitrate=   9.5kbits/s speed=0.157x elapsed=0:00:03.39    \nframe=   19 fps=4.8 q=45.0 size=       1KiB time=00:00:00.63 bitrate=   8.0kbits/s speed=0.16x elapsed=0:00:03.95    \nframe=   21 fps=4.7 q=20.0 size=       1KiB time=00:00:00.70 bitrate=   7.2kbits/s speed=0.156x elapsed=0:00:04.47    \nframe=   23 fps=4.5 q=46.0 size=       1KiB time=00:00:00.76 bitrate=   6.6kbits/s speed=0.151x elapsed=0:00:05.06    \nframe=   24 fps=4.2 q=46.0 size=       1KiB time=00:00:00.80 bitrate=   6.3kbits/s speed=0.14x elapsed=0:00:05.69    \nframe=   26 fps=4.1 q=47.0 size=       1KiB time=00:00:00.86 bitrate=   5.9kbits/s speed=0.138x elapsed=0:00:06.27    \nframe=   28 fps=4.1 q=46.0 size=       1KiB time=00:00:00.93 bitrate=   5.4kbits/s speed=0.135x elapsed=0:00:06.89    \nframe=   30 fps=4.0 q=44.0 size=       1KiB time=00:00:01.00 bitrate=   5.1kbits/s speed=0.133x elapsed=0:00:07.51    \nframe=   32 fps=4.0 q=44.0 size=       1KiB time=00:00:01.06 bitrate=   4.8kbits/s speed=0.132x elapsed=0:00:08.09    \nframe=   34 fps=3.9 q=44.0 size=       1KiB time=00:00:01.13 bitrate=   4.5kbits/s speed=0.131x elapsed=0:00:08.61    \nframe=   37 fps=4.0 q=44.0 size=       1KiB time=00:00:01.23 bitrate=   4.1kbits/s speed=0.134x elapsed=0:00:09.17    \nframe=   39 fps=4.0 q=44.0 size=       1KiB time=00:00:01.30 bitrate=   3.9kbits/s speed=0.133x elapsed=0:00:09.74    \nframe=   40 fps=3.9 q=43.0 size=       1KiB time=00:00:01.33 bitrate=   3.8kbits/s speed=0.129x elapsed=0:00:10.30    \nframe=   42 fps=3.9 q=41.0 size=       1KiB time=00:00:01.40 bitrate=   3.6kbits/s speed=0.129x elapsed=0:00:10.85    \nframe=   44 fps=3.9 q=41.0 size=       1KiB time=00:00:01.46 bitrate=   3.5kbits/s speed=0.128x elapsed=0:00:11.41    \nframe=   46 fps=3.8 q=41.0 size=       1KiB time=00:00:01.53 bitrate=   3.3kbits/s speed=0.128x elapsed=0:00:11.98    \nframe=   48 fps=3.8 q=40.0 size=       1KiB time=00:00:01.60 bitrate=   3.2kbits/s speed=0.128x elapsed=0:00:12.50    \nframe=   51 fps=3.9 q=40.0 size=       1KiB time=00:00:01.70 bitrate=   3.0kbits/s speed=0.13x elapsed=0:00:13.07    \nframe=   52 fps=3.8 q=40.0 size=       1KiB time=00:00:01.73 bitrate=   2.9kbits/s speed=0.127x elapsed=0:00:13.66    \nframe=   54 fps=3.8 q=45.0 size=       1KiB time=00:00:01.80 bitrate=   2.8kbits/s speed=0.126x elapsed=0:00:14.33    \nframe=   57 fps=3.8 q=44.0 size=       1KiB time=00:00:01.90 bitrate=   2.7kbits/s speed=0.127x elapsed=0:00:14.92    \nframe=   60 fps=3.9 q=44.0 size=       1KiB time=00:00:02.00 bitrate=   2.5kbits/s speed=0.129x elapsed=0:00:15.53    \nframe=   62 fps=3.8 q=44.0 size=       1KiB time=00:00:02.06 bitrate=   2.5kbits/s speed=0.128x elapsed=0:00:16.13    \nframe=   64 fps=3.8 q=38.0 size=       1KiB time=00:00:02.13 bitrate=   2.4kbits/s speed=0.127x elapsed=0:00:16.78    \nframe=   66 fps=3.8 q=38.0 size=       1KiB time=00:00:02.20 bitrate=   2.3kbits/s speed=0.127x elapsed=0:00:17.32    \nframe=   68 fps=3.8 q=39.0 size=       1KiB time=00:00:02.26 bitrate=   2.2kbits/s speed=0.127x elapsed=0:00:17.89    \nframe=   70 fps=3.8 q=37.0 size=       1KiB time=00:00:02.33 bitrate=   2.2kbits/s speed=0.127x elapsed=0:00:18.43    \nframe=   72 fps=3.8 q=38.0 size=       1KiB time=00:00:02.40 bitrate=   2.1kbits/s speed=0.126x elapsed=0:00:18.98    \nframe=   74 fps=3.8 q=39.0 size=       1KiB time=00:00:02.46 bitrate=   2.1kbits/s speed=0.126x elapsed=0:00:19.57    \nframe=   76 fps=3.8 q=39.0 size=       1KiB time=00:00:02.53 bitrate=   2.0kbits/s speed=0.126x elapsed=0:00:20.08    \nframe=   78 fps=3.8 q=41.0 size=       1KiB time=00:00:02.60 bitrate=   2.0kbits/s speed=0.126x elapsed=0:00:20.62    \nframe=   81 fps=3.8 q=42.0 size=       1KiB time=00:00:02.70 bitrate=   1.9kbits/s speed=0.127x elapsed=0:00:21.20    \nframe=   83 fps=3.8 q=41.0 size=       1KiB time=00:00:02.76 bitrate=   1.8kbits/s speed=0.127x elapsed=0:00:21.82    \nframe=   84 fps=3.7 q=40.0 size=       1KiB time=00:00:02.80 bitrate=   1.8kbits/s speed=0.125x elapsed=0:00:22.43    \nframe=   87 fps=3.8 q=44.0 size=       1KiB time=00:00:02.90 bitrate=   1.7kbits/s speed=0.126x elapsed=0:00:22.96    \nframe=   90 fps=3.8 q=42.0 size=       1KiB time=00:00:02.96 bitrate=   1.7kbits/s speed=0.126x elapsed=0:00:23.48    \nframe=   92 fps=3.8 q=44.0 size=       1KiB time=00:00:03.06 bitrate=   1.7kbits/s speed=0.127x elapsed=0:00:24.07    \nframe=   94 fps=3.8 q=44.0 size=       1KiB time=00:00:03.13 bitrate=   1.6kbits/s speed=0.127x elapsed=0:00:24.63    \nframe=   96 fps=3.8 q=45.0 size=       1KiB time=00:00:03.20 bitrate=   1.6kbits/s speed=0.127x elapsed=0:00:25.24    \nframe=   99 fps=3.8 q=46.0 size=       1KiB time=00:00:03.30 bitrate=   1.5kbits/s speed=0.128x elapsed=0:00:25.77    \nframe=  101 fps=3.8 q=48.0 size=       1KiB time=00:00:03.36 bitrate=   1.5kbits/s speed=0.128x elapsed=0:00:26.33    \nframe=  103 fps=3.8 q=48.0 size=       1KiB time=00:00:03.43 bitrate=   1.5kbits/s speed=0.128x elapsed=0:00:26.91    \nframe=  105 fps=3.8 q=35.0 size=       1KiB time=00:00:03.50 bitrate=   1.4kbits/s speed=0.127x elapsed=0:00:27.46    \nframe=  107 fps=3.8 q=43.0 size=       1KiB time=00:00:03.56 bitrate=   1.4kbits/s speed=0.127x elapsed=0:00:28.02    \nframe=  110 fps=3.8 q=42.0 size=       1KiB time=00:00:03.66 bitrate=   1.4kbits/s speed=0.128x elapsed=0:00:28.57    \nframe=  112 fps=3.8 q=42.0 size=       1KiB time=00:00:03.73 bitrate=   1.4kbits/s speed=0.128x elapsed=0:00:29.14    \nframe=  114 fps=3.8 q=41.0 size=       1KiB time=00:00:03.80 bitrate=   1.3kbits/s speed=0.128x elapsed=0:00:29.71    \nframe=  116 fps=3.8 q=41.0 size=       1KiB time=00:00:03.86 bitrate=   1.3kbits/s speed=0.128x elapsed=0:00:30.32    \nframe=  118 fps=3.8 q=41.0 size=       1KiB time=00:00:03.93 bitrate=   1.3kbits/s speed=0.127x elapsed=0:00:30.86    \nframe=  120 fps=3.8 q=41.0 size=       1KiB time=00:00:04.00 bitrate=   1.3kbits/s speed=0.127x elapsed=0:00:31.39    \nframe=  122 fps=3.8 q=42.0 size=       1KiB time=00:00:04.06 bitrate=   1.2kbits/s speed=0.127x elapsed=0:00:31.93    \nframe=  125 fps=3.8 q=44.0 size=       1KiB time=00:00:04.16 bitrate=   1.2kbits/s speed=0.128x elapsed=0:00:32.53    \nframe=  126 fps=3.8 q=44.0 size=       1KiB time=00:00:04.20 bitrate=   1.2kbits/s speed=0.127x elapsed=0:00:33.10    \nframe=  126 fps=3.7 q=44.0 size=       1KiB time=00:00:04.20 bitrate=   1.2kbits/s speed=0.125x elapsed=0:00:33.63    \nframe=  126 fps=3.7 q=44.0 size=       1KiB time=00:00:04.20 bitrate=   1.2kbits/s speed=0.123x elapsed=0:00:34.17    \nframe=  126 fps=3.6 q=44.0 size=       1KiB time=00:00:04.20 bitrate=   1.2kbits/s speed=0.121x elapsed=0:00:34.76    \nframe=  126 fps=3.6 q=44.0 size=       1KiB time=00:00:04.20 bitrate=   1.2kbits/s speed=0.119x elapsed=0:00:35.41    \nframe=  126 fps=3.5 q=44.0 size=       1KiB time=00:00:04.20 bitrate=   1.2kbits/s speed=0.116x elapsed=0:00:36.11    \nframe=  126 fps=3.4 q=44.0 size=       1KiB time=00:00:04.20 bitrate=   1.2kbits/s speed=0.114x elapsed=0:00:36.77    \nframe=  126 fps=3.4 q=44.0 size=       1KiB time=00:00:04.20 bitrate=   1.2kbits/s speed=0.112x elapsed=0:00:37.40    \nframe=  126 fps=3.3 q=44.0 size=       1KiB time=00:00:04.20 bitrate=   1.2kbits/s speed=0.111x elapsed=0:00:38.00    \nframe=  126 fps=3.3 q=44.0 size=       1KiB time=00:00:04.20 bitrate=   1.2kbits/s speed=0.109x elapsed=0:00:38.59    \nframe=  126 fps=3.2 q=44.0 size=       1KiB time=00:00:04.20 bitrate=   1.2kbits/s speed=0.107x elapsed=0:00:39.14    \n[out#0/webm @ 000001f6d9d11280] video:4168KiB audio:0KiB subtitle:0KiB other streams:0KiB global headers:0KiB muxing overhead: 0.043463%\nframe=  150 fps=3.8 q=40.0 Lsize=    4170KiB time=00:00:05.00 bitrate=6831.8kbits/s speed=0.126x elapsed=0:00:39.58    \n",
  "seconds": 40.005958795547485,
  "probe_out": {}
}